<svg width="27.000000" height="24.000000" viewBox="0 0 27 24" fill="none" xmlns="http://www.w3.org/2000/svg" xmlns:xlink="http://www.w3.org/1999/xlink">
	<desc>
			Created with Pixso.
	</desc>
	<defs/>
	<path id="Forma 1 copy" d="M5.49 21.18C5.5 20.75 5.64 20.33 5.88 19.97C6.12 19.61 6.47 19.34 6.87 19.18C7.27 19.02 7.7 18.98 8.12 19.07C8.54 19.16 8.93 19.37 9.23 19.68C9.53 19.99 9.73 20.38 9.81 20.81C9.89 21.23 9.85 21.67 9.68 22.07C9.52 22.47 9.24 22.81 8.88 23.05C8.52 23.29 8.1 23.42 7.67 23.42C7.38 23.42 7.1 23.36 6.83 23.24C6.57 23.13 6.33 22.96 6.12 22.75C5.92 22.55 5.76 22.3 5.65 22.03C5.55 21.76 5.49 21.47 5.49 21.18ZM21.3 23.42C20.87 23.43 20.44 23.3 20.07 23.07C19.71 22.83 19.42 22.5 19.24 22.1C19.06 21.7 19.01 21.26 19.08 20.83C19.14 20.39 19.34 19.99 19.63 19.67C19.92 19.35 20.3 19.12 20.72 19.01C21.14 18.9 21.59 18.92 21.99 19.07C22.4 19.21 22.76 19.47 23.03 19.82C23.29 20.17 23.45 20.58 23.48 21.02C23.52 21.61 23.33 22.2 22.95 22.65C22.77 22.87 22.54 23.05 22.28 23.19C22.03 23.32 21.75 23.4 21.46 23.42L21.3 23.42ZM8.59 16.48C8.38 16.48 8.17 16.41 8 16.28C7.83 16.15 7.71 15.96 7.66 15.76L3.73 1.19L0.97 1.19C0.71 1.19 0.47 1.09 0.28 0.9C0.1 0.72 0 0.47 0 0.2C0 -0.06 0.1 -0.31 0.28 -0.49C0.47 -0.68 0.71 -0.78 0.97 -0.78L4.45 -0.78C4.66 -0.78 4.87 -0.71 5.04 -0.58C5.21 -0.45 5.33 -0.27 5.38 -0.06L9.31 14.51L20.01 14.51L23.57 6.12L11.71 6.12C11.45 6.12 11.21 6.02 11.02 5.83C10.84 5.65 10.74 5.4 10.74 5.13C10.74 4.87 10.84 4.62 11.02 4.44C11.21 4.25 11.45 4.15 11.71 4.15L25.05 4.15C25.21 4.15 25.37 4.19 25.5 4.27C25.64 4.34 25.76 4.46 25.85 4.59C25.94 4.73 25.99 4.89 26 5.05C26.02 5.21 25.99 5.38 25.93 5.53L21.54 15.89C21.46 16.06 21.34 16.21 21.18 16.32C21.03 16.42 20.84 16.48 20.66 16.48L8.59 16.48Z" fill="#EF5B70" fill-opacity="1.000000" fill-rule="nonzero"/>
</svg>
