<svg width="11.000000" height="5.000000" viewBox="0 0 11 5" fill="none" xmlns="http://www.w3.org/2000/svg" xmlns:xlink="http://www.w3.org/1999/xlink">
	<desc>
			Created with Pixso.
	</desc>
	<defs/>
	<path id="Vector" d="M5 4.64C4.83 4.64 4.67 4.59 4.54 4.48L0.25 0.88C0.11 0.75 0.02 0.58 0 0.39C-0.02 0.2 0.04 0.01 0.16 -0.14C0.28 -0.29 0.46 -0.38 0.64 -0.4C0.83 -0.42 1.02 -0.36 1.17 -0.23L5 2.99L8.83 -0.12C8.9 -0.18 8.98 -0.22 9.07 -0.25C9.16 -0.28 9.26 -0.29 9.35 -0.28C9.45 -0.27 9.54 -0.24 9.62 -0.19C9.7 -0.15 9.78 -0.09 9.83 -0.01C9.9 0.06 9.95 0.15 9.98 0.24C10.01 0.34 10.02 0.44 10.01 0.54C10 0.64 9.97 0.73 9.93 0.82C9.88 0.9 9.81 0.98 9.73 1.04L5.45 4.52C5.31 4.61 5.16 4.65 5 4.64Z" fill="#6F6E6E" fill-opacity="1.000000" fill-rule="nonzero"/>
</svg>
